ffmpeg version 3.4.8-0ubuntu0.2 Copyright (c) 2000-2020 the FFmpeg developers
  built with gcc 7 (Ubuntu 7.5.0-3ubuntu1~18.04)
  configuration: --prefix=/usr --extra-version=0ubuntu0.2 --toolchain=hardened --libdir=/usr/lib/x86_64-linux-gnu --incdir=/usr/include/x86_64-linux-gnu --enable-gpl --disable-stripping --enable-avresample --enable-avisynth --enable-gnutls --enable-ladspa --enable-libass --enable-libbluray --enable-libbs2b --enable-libcaca --enable-libcdio --enable-libflite --enable-libfontconfig --enable-libfreetype --enable-libfribidi --enable-libgme --enable-libgsm --enable-libmp3lame --enable-libmysofa --enable-libopenjpeg --enable-libopenmpt --enable-libopus --enable-libpulse --enable-librubberband --enable-librsvg --enable-libshine --enable-libsnappy --enable-libsoxr --enable-libspeex --enable-libssh --enable-libtheora --enable-libtwolame --enable-libvorbis --enable-libvpx --enable-libwavpack --enable-libwebp --enable-libx265 --enable-libxml2 --enable-libxvid --enable-libzmq --enable-libzvbi --enable-omx --enable-openal --enable-opengl --enable-sdl2 --enable-libdc1394 --enable-libdrm --enable-libiec61883 --enable-chromaprint --enable-frei0r --enable-libopencv --enable-libx264 --enable-shared
  libavutil      55. 78.100 / 55. 78.100
  libavcodec     57.107.100 / 57.107.100
  libavformat    57. 83.100 / 57. 83.100
  libavdevice    57. 10.100 / 57. 10.100
  libavfilter     6.107.100 /  6.107.100
  libavresample   3.  7.  0 /  3.  7.  0
  libswscale      4.  8.100 /  4.  8.100
  libswresample   2.  9.100 /  2.  9.100
  libpostproc    54.  7.100 / 54.  7.100
[rawvideo @ 0x5627e02eaa20] Estimating duration from bitrate, this may be inaccurate
Input #0, rawvideo, from '../../SVC-Encoder-20220109T061506Z-001/SVC-Encoder/Dataset/RollerCoaster/ERP_8x8/tile_yuv/Tile_8_480x240.yuv':
  Duration: 00:00:10.00, start: 0.000000, bitrate: 41472 kb/s
    Stream #0:0: Video: rawvideo (I420 / 0x30323449), yuv420p, 480x240, 41472 kb/s, 30 tbr, 30 tbn, 30 tbc
Stream mapping:
  Stream #0:0 -> #0:0 (rawvideo (native) -> h264 (libx264))
Press [q] to stop, [?] for help
[libx264 @ 0x5627e02f7c60] using cpu capabilities: MMX2 SSE2Fast LZCNT SSSE3 SSE4.2 AVX
[libx264 @ 0x5627e02f7c60] profile High, level 2.1
Output #0, rawvideo, to 'RollerCoaster_Tile_8_480x240_x264_QP_36.h264':
  Metadata:
    encoder         : Lavf57.83.100
    Stream #0:0: Video: h264 (libx264), yuv420p, 480x240, q=-1--1, 30 fps, 30 tbn, 30 tbc
    Metadata:
      encoder         : Lavc57.107.100 libx264
    Side data:
      cpb: bitrate max/min/avg: 0/0/0 buffer size: 0 vbv_delay: -1
frame=  300 fps=0.0 q=42.0 LPSNR=Y:inf U:inf V:inf *:inf size=       6kB time=00:00:09.93 bitrate=   4.6kbits/s speed=24.5x    
video:6kB audio:0kB subtitle:0kB other streams:0kB global headers:0kB muxing overhead: 0.000000%
[libx264 @ 0x5627e02f7c60] frame I:2     Avg QP:33.84  size:   553  PSNR Mean Y:45.98 U:47.92 V:48.88 Avg:46.62 Global:46.56
[libx264 @ 0x5627e02f7c60] frame P:76    Avg QP:38.31  size:    19  PSNR Mean Y:46.19 U:46.52 V:48.81 Avg:46.57 Global:46.54
[libx264 @ 0x5627e02f7c60] frame B:222   Avg QP:41.65  size:    14  PSNR Mean Y:46.18 U:46.50 V:48.82 Avg:46.56 Global:46.53
[libx264 @ 0x5627e02f7c60] consecutive B-frames:  1.3%  0.0%  0.0% 98.7%
[libx264 @ 0x5627e02f7c60] mb I  I16..4: 17.8% 82.2%  0.0%
[libx264 @ 0x5627e02f7c60] mb P  I16..4:  0.0%  0.0%  0.0%  P16..4:  0.0%  0.0%  0.0%  0.0%  0.0%    skip:100.0%
[libx264 @ 0x5627e02f7c60] mb B  I16..4:  0.0%  0.0%  0.0%  B16..8:  0.0%  0.0%  0.0%  direct: 0.0%  skip:100.0%
[libx264 @ 0x5627e02f7c60] 8x8 transform intra:82.2%
[libx264 @ 0x5627e02f7c60] coded y,uvDC,uvAC intra: 0.9% 2.6% 0.0% inter: 0.0% 0.0% 0.0%
[libx264 @ 0x5627e02f7c60] i16 v,h,dc,p: 48% 44%  7%  1%
[libx264 @ 0x5627e02f7c60] i8 v,h,dc,ddl,ddr,vr,hd,vl,hu:  0%  0% 100%  0%  0%  0%  0%  0%  0%
[libx264 @ 0x5627e02f7c60] i8c dc,h,v,p: 100%  0%  0%  0%
[libx264 @ 0x5627e02f7c60] Weighted P-Frames: Y:0.0% UV:0.0%
[libx264 @ 0x5627e02f7c60] ref P L0: 66.7%  0.0% 33.3%
[libx264 @ 0x5627e02f7c60] PSNR Mean Y:46.179 U:46.512 V:48.816 Avg:46.561 Global:46.530 kb/s:4.59
